<svg xmlns="http://www.w3.org/2000/svg" xmlns:xlink="http://www.w3.org/1999/xlink" width="22" height="22" viewBox="0 0 22 22">
  <defs>
    <path id="b" d="M19.5 10.344c.27.041.484.166.64.375.157.208.23.437.22.687a.96.96 0 0 1-.298.657L16.75 15.28l.781 4.563a.987.987 0 0 1-.14.703.917.917 0 0 1-.579.422.964.964 0 0 1-.718-.094L12 18.75l-4.094 2.125a.964.964 0 0 1-.719.094.917.917 0 0 1-.578-.422.987.987 0 0 1-.14-.703l.781-4.563-3.313-3.218a.96.96 0 0 1-.296-.657c-.01-.25.062-.479.218-.687a.948.948 0 0 1 .641-.375l4.562-.656 2.032-4.125a.95.95 0 0 1 .547-.5c.24-.084.479-.084.718 0a.95.95 0 0 1 .547.5l2.031 4.125 4.563.656zm-4.344 4.406l3.125-3.062-4.344-.625L12 7.125l-1.938 3.938-4.343.625 3.125 3.062-.719 4.344L12 17.03l3.875 2.063-.719-4.344z"/>
    <filter id="a" width="159.8%" height="162.5%" x="-29.9%" y="-25%" filterUnits="objectBoundingBox">
      <feOffset dy="1" in="SourceAlpha" result="shadowOffsetOuter1"/>
      <feGaussianBlur in="shadowOffsetOuter1" result="shadowBlurOuter1" stdDeviation="1.5"/>
      <feColorMatrix in="shadowBlurOuter1" values="0 0 0 0 0 0 0 0 0 0 0 0 0 0 0 0 0 0 0.25 0"/>
    </filter>
  </defs>
  <g fill="none" fill-rule="evenodd">
    <path d="M-1-3h24v24H-1z"/>
    <g transform="translate(-1 -3)">
      <use fill="#000" filter="url(#a)" xlink:href="#b"/>
      <use fill="#FFF" xlink:href="#b"/>
    </g>
  </g>
</svg>
