<svg xmlns="http://www.w3.org/2000/svg" width="136" height="33" viewBox="0 0 136 33">
  <defs>
    <linearGradient id="a" x1="100%" x2="0%" y1="50%" y2="50%">
      <stop offset="0%" stop-color="#FF9951"/>
      <stop offset="100%" stop-color="#F76B1C"/>
    </linearGradient>
  </defs>
  <g fill="none" fill-rule="evenodd">
    <path fill="#FFF" d="M56.677 20.94l-.038-7.027-3.408 5.72h-1.667l-3.389-5.53v6.836H44.71V7.682h3.086l4.658 7.651L57 7.682h3.086l.038 13.257h-3.446zm11.077.17c-1.098 0-2.09-.227-2.973-.682a5.145 5.145 0 0 1-2.073-1.894c-.499-.808-.748-1.723-.748-2.746 0-1.01.25-1.92.748-2.727a5.094 5.094 0 0 1 2.064-1.885c.877-.448 1.871-.672 2.982-.672 1.11 0 2.108.224 2.992.672.883.448 1.571 1.073 2.063 1.875.493.802.739 1.714.739 2.737 0 1.023-.246 1.938-.739 2.746-.492.808-1.18 1.44-2.063 1.894-.884.455-1.881.682-2.992.682zm0-2.86c.631 0 1.149-.218 1.553-.653.403-.436.605-1.039.605-1.81 0-.757-.202-1.35-.605-1.78-.404-.429-.922-.643-1.553-.643-.631 0-1.149.214-1.553.644-.404.429-.606 1.022-.606 1.78 0 .77.202 1.373.606 1.809.404.435.922.653 1.553.653zm18.272-7.576L81.785 20.94h-3.712l-4.222-10.265h3.692l2.462 6.27 2.594-6.27h3.427zm.928 0h3.597V20.94h-3.597V10.674zm1.799-1.136c-.657 0-1.187-.183-1.59-.55a1.766 1.766 0 0 1-.607-1.363c0-.543.202-.997.606-1.364.404-.366.934-.549 1.59-.549.657 0 1.187.174 1.591.521.404.347.606.792.606 1.335 0 .568-.202 1.039-.606 1.411-.404.373-.934.559-1.59.559zm14.617 6.288c0 .025-.019.322-.056.89h-7.46c.15.53.444.937.88 1.221.435.285.981.427 1.638.427.492 0 .918-.07 1.278-.209a3.77 3.77 0 0 0 1.088-.682l1.894 1.97c-.997 1.111-2.455 1.667-4.374 1.667-1.2 0-2.253-.227-3.162-.682-.909-.455-1.613-1.086-2.111-1.894-.499-.808-.748-1.723-.748-2.746 0-1.01.243-1.916.729-2.718a5.094 5.094 0 0 1 2.016-1.884c.859-.455 1.824-.682 2.897-.682 1.023 0 1.95.211 2.784.634a4.826 4.826 0 0 1 1.978 1.837c.486.802.73 1.752.73 2.85zm-5.472-2.765c-.555 0-1.02.157-1.391.473-.373.316-.61.745-.71 1.288H100c-.101-.543-.338-.972-.71-1.288-.372-.316-.836-.473-1.392-.473z"/>
    <path fill="url(#a)" d="M107.891 19.205c-1.401 0-2.66-.297-3.777-.89a6.687 6.687 0 0 1-2.632-2.463c-.638-1.048-.957-2.228-.957-3.541 0-1.314.32-2.494.957-3.542a6.687 6.687 0 0 1 2.632-2.462c1.117-.594 2.376-.89 3.777-.89 1.401 0 2.66.296 3.778.89a6.687 6.687 0 0 1 2.632 2.462c.637 1.048.956 2.228.956 3.542 0 1.313-.319 2.493-.956 3.541a6.687 6.687 0 0 1-2.632 2.462c-1.118.594-2.377.89-3.778.89zm0-3.107a3.55 3.55 0 0 0 1.818-.473c.543-.316.972-.76 1.287-1.335.316-.575.474-1.234.474-1.98 0-.744-.158-1.404-.474-1.979a3.405 3.405 0 0 0-1.287-1.335 3.55 3.55 0 0 0-1.818-.473 3.55 3.55 0 0 0-1.818.473c-.542.316-.972.76-1.287 1.335-.316.575-.474 1.235-.474 1.98 0 .745.158 1.404.474 1.979.315.574.745 1.02 1.287 1.335a3.55 3.55 0 0 0 1.818.473zM123.74 8.504c1.275 0 2.3.379 3.077 1.136.776.758 1.164 1.9 1.164 3.428v5.871h-3.598v-5.284c0-1.401-.561-2.102-1.685-2.102-.618 0-1.114.202-1.486.606-.373.404-.559 1.01-.559 1.818v4.962h-3.597V8.674h3.427v1.118a4.078 4.078 0 0 1 1.439-.957 4.874 4.874 0 0 1 1.818-.331zM31.763 0c.434 0 .803.152 1.107.456.304.304.455.672.455 1.107v21.875c0 .434-.151.802-.455 1.106a1.506 1.506 0 0 1-1.107.456h-.52v-1.302a.754.754 0 0 0-.228-.553.753.753 0 0 0-.553-.228h-2.604a.753.753 0 0 0-.553.228.754.754 0 0 0-.228.553V25H6.249v-1.302a.754.754 0 0 0-.228-.553.753.753 0 0 0-.554-.228H2.864a.753.753 0 0 0-.553.228.754.754 0 0 0-.228.553V25h-.52c-.435 0-.804-.152-1.107-.456A1.507 1.507 0 0 1 0 23.437V1.563C0 1.129.152.76.456.456A1.506 1.506 0 0 1 1.562 0h.52v1.302c0 .217.077.402.229.553a.753.753 0 0 0 .553.228h2.603a.753.753 0 0 0 .554-.228.754.754 0 0 0 .228-.553V0h20.828v1.302c0 .217.076.402.228.553a.753.753 0 0 0 .553.228h2.604a.753.753 0 0 0 .553-.228.754.754 0 0 0 .228-.553V0h.52zM6.25 20.052v-2.604a.754.754 0 0 0-.228-.553.753.753 0 0 0-.554-.228H2.864a.753.753 0 0 0-.553.228.754.754 0 0 0-.228.553v2.604c0 .217.076.402.228.553a.753.753 0 0 0 .553.228h2.603a.753.753 0 0 0 .554-.228.754.754 0 0 0 .228-.553zm0-6.25v-2.604a.754.754 0 0 0-.228-.553.753.753 0 0 0-.554-.228H2.864a.753.753 0 0 0-.553.228.754.754 0 0 0-.228.553v2.604c0 .217.076.402.228.553a.753.753 0 0 0 .553.228h2.603a.753.753 0 0 0 .554-.228.754.754 0 0 0 .228-.553zm0-6.25V4.948a.754.754 0 0 0-.228-.553.753.753 0 0 0-.554-.228H2.864a.753.753 0 0 0-.553.228.754.754 0 0 0-.228.553v2.604c0 .217.076.402.228.553a.753.753 0 0 0 .553.228h2.603a.753.753 0 0 0 .554-.228.754.754 0 0 0 .228-.553zm17.704 13.542v-6.25a.754.754 0 0 0-.228-.554.753.753 0 0 0-.553-.227H10.154a.753.753 0 0 0-.553.227.754.754 0 0 0-.228.554v6.25c0 .217.076.401.228.553a.753.753 0 0 0 .553.228h13.018a.753.753 0 0 0 .553-.228.754.754 0 0 0 .228-.553zm0-10.938v-6.25a.754.754 0 0 0-.228-.553.753.753 0 0 0-.553-.228H10.154a.753.753 0 0 0-.553.228.754.754 0 0 0-.228.553v6.25c0 .217.076.402.228.554a.753.753 0 0 0 .553.227h13.018a.753.753 0 0 0 .553-.227.754.754 0 0 0 .228-.554zm7.29 9.896v-2.604a.754.754 0 0 0-.228-.553.753.753 0 0 0-.553-.228h-2.604a.753.753 0 0 0-.553.228.754.754 0 0 0-.228.553v2.604c0 .217.076.402.228.553a.753.753 0 0 0 .553.228h2.604a.753.753 0 0 0 .553-.228.754.754 0 0 0 .228-.553zm0-6.25v-2.604a.754.754 0 0 0-.228-.553.753.753 0 0 0-.553-.228h-2.604a.753.753 0 0 0-.553.228.754.754 0 0 0-.228.553v2.604c0 .217.076.402.228.553a.753.753 0 0 0 .553.228h2.604a.753.753 0 0 0 .553-.228.754.754 0 0 0 .228-.553zm0-6.25V4.948a.754.754 0 0 0-.228-.553.753.753 0 0 0-.553-.228h-2.604a.753.753 0 0 0-.553.228.754.754 0 0 0-.228.553v2.604c0 .217.076.402.228.553a.753.753 0 0 0 .553.228h2.604a.753.753 0 0 0 .553-.228.754.754 0 0 0 .228-.553z" transform="translate(4 2)"/>
  </g>
</svg>
