<?xml version="1.0" encoding="utf-8"?>
<!-- Generator: Adobe Illustrator 13.0.0, SVG Export Plug-In . SVG Version: 6.00 Build 14948)  -->
<!DOCTYPE svg PUBLIC "-//W3C//DTD SVG 1.1//EN" "http://www.w3.org/Graphics/SVG/1.1/DTD/svg11.dtd">
<svg version="1.1" id="Calque_1" xmlns="http://www.w3.org/2000/svg" xmlns:xlink="http://www.w3.org/1999/xlink" x="0px" y="0px"
	 width="900px" height="675px" viewBox="0 0 900 675" enable-background="new 0 0 900 675" xml:space="preserve">
<rect x="3.062" y="-0.344" opacity="0.5" fill="#FFFFFF" enable-background="new    " width="900" height="675"/>
<g id="g3507" opacity="0.5">
	<path id="path3509" fill="#2D2D2D" d="M365.233,269.149c-3.207,0.112-5.752,2.742-5.752,5.975v6.534h-1.634
		c-0.101,0-0.201-0.005-0.309,0c-0.051,0-0.093-0.005-0.143,0c-6.413,0.248-11.513,5.5-11.513,11.975v99.552
		c0,6.638,5.332,11.978,11.965,11.978h190.427c6.641,0,11.966-5.34,11.966-11.978v-99.552c0-6.628-5.326-11.975-11.966-11.975
		h-142.52v-6.533c0-3.311-2.663-5.976-5.983-5.976h-34.297C365.396,269.149,365.312,269.149,365.233,269.149z M515.309,289.984
		c0.016,0,0.042,0,0.059,0c0.062,0,0.125,0,0.184,0h29.914c1.512,0,2.734,1.207,2.734,2.711v14.933c0,1.521-1.223,2.733-2.734,2.733
		h-29.914c-1.516,0-2.717-1.212-2.717-2.733v-14.933C512.834,291.268,513.91,290.1,515.309,289.984z M451.939,299.882
		c0.092,0,0.184,0,0.284,0c0.092,0,0.185,0,0.276,0c0.184,0,0.373,0,0.561,0c24.027,0,43.525,19.514,43.525,43.532
		c0,24.025-19.498,43.521-43.525,43.521c-24.026,0-43.513-19.496-43.513-43.521C409.548,319.765,428.431,300.477,451.939,299.882
		L451.939,299.882z"/>
	<path id="path3511" fill="#2D2D2D" d="M481.078,343.408c0,15.479-12.545,28.021-28.018,28.021
		c-15.472,0-28.013-12.543-28.013-28.021c0-15.467,12.539-28.02,28.013-28.02C468.535,315.389,481.078,327.941,481.078,343.408z"/>
</g>
</svg>
